<?xml version="1.0" standalone="no"?><!DOCTYPE svg PUBLIC "-//W3C//DTD SVG 1.1//EN" "http://www.w3.org/Graphics/SVG/1.1/DTD/svg11.dtd"><svg t="1616411666674" class="icon" viewBox="0 0 1024 1024" version="1.1" xmlns="http://www.w3.org/2000/svg" p-id="2840" xmlns:xlink="http://www.w3.org/1999/xlink" width="200" height="200"><defs><style type="text/css"></style></defs><path d="M722.261333 106.666667C876.757333 106.666667 1002.666667 230.421333 1002.666667 383.018667c0 158.016-93.76 297.216-250.986667 423.914666-39.68 31.978667-81.408 61.525333-127.274667 91.093334a6895.36 6895.36 0 0 1-89.066666 55.36l-23.424 14.826666-23.061334-15.402666c2.24 1.493333-63.466667-41.28-89.258666-58.858667-45.845333-31.232-87.658667-62.208-127.381334-95.253333C114.986667 667.946667 21.333333 531.029333 21.333333 383.018667 21.333333 230.442667 147.264 106.666667 301.76 106.666667c81.28 0 156.992 33.877333 210.24 93.482666C565.269333 140.544 640.96 106.666667 722.261333 106.666667z m-144.085333 719.637333c43.498667-28.053333 82.858667-55.914667 119.957333-85.802667C837.269333 628.373333 917.333333 509.504 917.333333 383.018667 917.333333 277.888 829.952 192 722.261333 192c-61.717333 0-118.229333 27.562667-155.541333 75.733333L512 338.346667l-33.728-43.52-20.992-27.093334C419.968 219.562667 363.456 192 301.76 192 194.069333 192 106.666667 277.888 106.666667 383.018667c0 116.266667 80.533333 233.984 220.117333 350.08 37.418667 31.125333 77.12 60.522667 120.874667 90.346666 14.997333 10.24 44.693333 29.738667 65.557333 43.392a4898.773333 4898.773333 0 0 0 64.96-40.533333z" p-id="2841" fill="darkorange"></path></svg>
